<svg xmlns="http://www.w3.org/2000/svg" width="72.553" height="72.624" viewBox="0 0 72.553 72.624"><defs><style>.a{fill:#ff7d27;}</style></defs><g transform="translate(-0.25)"><path class="a" d="M498.313,418.5a1.063,1.063,0,0,0-1.063,1.063v11.124a1.063,1.063,0,0,0,2.126,0V419.563A1.063,1.063,0,0,0,498.313,418.5Z" transform="translate(-426.572 -359.196)"/><path class="a" d="M71.74,35.335H63.395V31.5h2.552a2.821,2.821,0,0,0,2.818-2.818V2.818A2.821,2.821,0,0,0,65.947,0H26.3a2.821,2.821,0,0,0-2.818,2.818V6.634a1.063,1.063,0,0,0,2.126,0V2.818a.693.693,0,0,1,.692-.692h39.65a.693.693,0,0,1,.692.692V23.426H63.395V12.1a1.063,1.063,0,0,0-1.447-.991c-.278.108-6.142,2.5-7.389,12.314H25.6V12.16a1.063,1.063,0,0,0-2.126,0V28.685A2.821,2.821,0,0,0,26.3,31.5H40.573v3.832H16.442c2.354-2.351,2.584-6.075,2.584-9.2a1.063,1.063,0,0,0-1.063-1.063H12.224V23.062c3.409.725,7.126-2.071,7.081-5.618a1.37,1.37,0,0,0-.5-1.247,5.733,5.733,0,0,0-6.577.678V14.957a6,6,0,0,0,.344-9.337,4.109,4.109,0,0,0-.968-.6c-1.5-.612-3.145,2.057-3.5,3.086a6.019,6.019,0,0,0,2,6.777v1.974a5.945,5.945,0,0,0-4.886-1.309c-.719.144-1.98.47-2.137,1.342-.674,3.752,3.576,6.893,7.023,6.17v2H3.934a1.063,1.063,0,0,0-1.063,1.063c0,3.124.169,6.852,2.523,9.2H1.313A1.063,1.063,0,0,0,.25,36.4V71.49a1.063,1.063,0,0,0,2.126,0v-4.96h19.2v4.96a1.063,1.063,0,0,0,2.126,0V44.425H61.285c.006.37.041,2.365.045,2.962H43.343c-4.2,0-7.315,1.094-9.253,3.251A8.106,8.106,0,0,0,32.084,56.5a1.063,1.063,0,0,0,1.057.95h13.73v1.913h-4.18a1.063,1.063,0,0,0,0,2.126h4.18v8.941h-13.6a1.063,1.063,0,0,0,0,2.126H47.555a1.049,1.049,0,0,0,.758,0H62.6a1.063,1.063,0,0,0,0-2.126H49V57.448h7.1c2.44,0,4.2-.588,5.392-1.8,2.083-2.121,2.019-5.671,1.939-10.167-.006-.348-.012-.7-.018-1.059h7.267v9.99a1.063,1.063,0,0,0,2.126,0V36.4A1.063,1.063,0,0,0,71.74,35.335ZM14,18.209a3.573,3.573,0,0,1,3.177-.445,3.92,3.92,0,0,1-4.913,3.112A3.652,3.652,0,0,1,14,18.209ZM6.935,20.419a3.721,3.721,0,0,1-1.77-2.656,3.886,3.886,0,0,1,4.909,3.113A3.769,3.769,0,0,1,6.935,20.419ZM11.216,7.251a3.89,3.89,0,0,1-.006,5.818,3.642,3.642,0,0,1-1.321-2.9A3.573,3.573,0,0,1,11.216,7.251Zm-6.2,19.943H16.884c-.18,5.741-1.893,8.006-5.936,8.006C6.851,35.2,5.184,33.008,5.012,27.194ZM59.973,54.161c-.768.782-2.036,1.162-3.876,1.162H34.226a5.884,5.884,0,0,1,1.446-3.264c1.518-1.689,4.1-2.546,7.672-2.546H61.3C61.215,51.6,60.9,53.216,59.973,54.161Zm6.666-28.609v3.134a.693.693,0,0,1-.692.692H63.395V25.551ZM59.607,15.78a10.313,10.313,0,0,1,1.662-1.746V40.655a10.856,10.856,0,0,1-1.652-1.789c-2.071-2.8-3.166-6.809-3.166-11.6S57.543,18.508,59.607,15.78Zm-5,15.723a22.752,22.752,0,0,0,.87,3.832h-3.81V31.5ZM25.6,28.685V25.551H54.37a32.73,32.73,0,0,0,.024,3.826H26.3A.693.693,0,0,1,25.6,28.685ZM42.7,31.5h6.847v3.832H42.7Zm13.617,5.958A14.086,14.086,0,0,0,59.91,42.3H2.376V37.461ZM2.376,64.405V55.478h19.2v8.927Zm19.2-11.053H2.376V44.425h19.2ZM63.395,42.3V37.461h7.283V42.3Z"/><path class="a" d="M48.523,339.626H56.6a1.063,1.063,0,0,0,0-2.126H48.523A1.063,1.063,0,0,0,48.523,339.626Z" transform="translate(-40.55 -289.674)"/><path class="a" d="M56.6,415.5H48.523a1.063,1.063,0,0,0,0,2.126H56.6A1.063,1.063,0,0,0,56.6,415.5Z" transform="translate(-40.55 -356.621)"/></g></svg>