<svg xmlns="http://www.w3.org/2000/svg" width="77.013" height="79.432" viewBox="0 0 77.013 79.432"><defs><style>.a{fill:#ff7d27;}</style></defs><g transform="translate(-7.797 0.001)"><g transform="translate(7.797 -0.001)"><path class="a" d="M83.951,56.853c-1.482-2.178-4-2.709-6.726-1.424l-1.447.637a23.929,23.929,0,0,0,1.429-15.407c-1.3-5.882-4.456-11.58-9.366-16.936A1.163,1.163,0,1,0,66.127,25.3c4.63,5.051,7.594,10.389,8.809,15.867,1.28,5.77.535,11.721-2.731,16.476L57.724,64.015l.012-1.635a1.135,1.135,0,0,0-.006-.124,7.291,7.291,0,0,0-6.248-6.513l-.03,0L38.581,54.257c-4.949-.7-6.224-3.67-12.926-5.362A25.045,25.045,0,0,1,27.5,36.587c2.548-6.317,7.533-12.454,14.444-17.8,2.576,1.826,14.068,2.054,16.639-.3,1.317,1,2.575,2.032,3.746,3.075a1.163,1.163,0,1,0,1.548-1.737c-1.284-1.144-2.665-2.273-4.114-3.363a4.141,4.141,0,0,0-1.389-4.127C62.018,6.811,63.077,3.2,61.614,1.3a2.034,2.034,0,0,0-2.79-.43,1.866,1.866,0,0,1-2.231-.08,4.182,4.182,0,0,0-4.9,0,1.876,1.876,0,0,1-2.351,0,4.182,4.182,0,0,0-4.9,0,1.852,1.852,0,0,1-2.229.074,2.03,2.03,0,0,0-2.794.416c-1.431,1.841-.473,5.343,2.923,10.68a3.788,3.788,0,0,0-.591.4A7.855,7.855,0,0,0,34.989,9.8,8.525,8.525,0,0,1,29.2,8.431a1.163,1.163,0,0,0-1.3,1.932,10.833,10.833,0,0,0,7.342,1.748,5.685,5.685,0,0,1,5.2,2.273q-.021.074-.04.15a19.965,19.965,0,0,0-3.689.4c-3.527.734-6.145,2.41-7.571,4.847a1.163,1.163,0,1,0,2.008,1.175c2.121-3.625,7.3-4.069,9.356-4.1.009.026.019.051.029.076C33.2,22.6,28.087,28.913,25.343,35.716a27.612,27.612,0,0,0-2.076,12.7,24.208,24.208,0,0,0-3.378-.261v-.7a3.38,3.38,0,0,0-3.376-3.376H11.173A3.38,3.38,0,0,0,7.8,47.453V74.548a3.38,3.38,0,0,0,3.376,3.376h5.34a3.38,3.38,0,0,0,3.376-3.376v-.331l11.65,4.336a13.938,13.938,0,0,0,4.877.878H53.774a13.96,13.96,0,0,0,7.483-2.171C84.413,62.58,83.007,63.493,83.141,63.375a4.989,4.989,0,0,0,.81-6.522ZM56.4,17.11a25.215,25.215,0,0,1-12.646,0c-1.826-.462-1.3-3.718.665-3.226a22.687,22.687,0,0,0,11.315,0C57.664,13.4,58.256,16.641,56.4,17.11ZM41.154,2.936l.027.013a4.127,4.127,0,0,0,4.538-.211c1.982-1.3,2.2.783,4.8.783a4.041,4.041,0,0,0,2.449-.783,1.877,1.877,0,0,1,2.351,0,4.149,4.149,0,0,0,4.557.208c.239.863-.3,3.435-3.752,8.571-1.713-.029-4.2,1.653-11.237.087-3.442-5.2-3.975-7.8-3.734-8.669Zm40.5,58.642L60.012,75.295a11.637,11.637,0,0,1-6.237,1.81H36.416a11.616,11.616,0,0,1-4.065-.732L19.89,71.734V59.206a1.163,1.163,0,1,0-2.326,0V74.548A1.051,1.051,0,0,1,16.514,75.6H11.173a1.051,1.051,0,0,1-1.049-1.049V47.454A1.05,1.05,0,0,1,11.173,46.4h5.34a1.05,1.05,0,0,1,1.049,1.049v6.313a1.163,1.163,0,1,0,2.326,0V50.484c9.624.074,11.787,5.146,18.38,6.079l.03,0,12.87,1.482a4.97,4.97,0,0,1,4.239,4.379l-.016,2.213h-12a1.163,1.163,0,1,0,0,2.327H56.547a1.2,1.2,0,0,0,.464-.1l21.165-9.319c1.522-.676,2.91-.773,3.851.61A2.657,2.657,0,0,1,81.659,61.578Z" transform="translate(-7.797 0.001)"/><path class="a" d="M246.464,184.016a1.163,1.163,0,0,0,1.163-1.163v-1.928a6.816,6.816,0,0,0,5.586-5.64,5.967,5.967,0,0,0-4.111-6.825c-.533-.188-1.023-.368-1.475-.542V160.5a4.785,4.785,0,0,1,2.263.994,1.163,1.163,0,0,0,1.571-1.716,7.21,7.21,0,0,0-3.834-1.627V156.5a1.163,1.163,0,1,0-2.327,0v1.748a8.565,8.565,0,0,0-.863.211,5.625,5.625,0,0,0-3.85,4.416,4.92,4.92,0,0,0,1.6,4.85,14.1,14.1,0,0,0,3.114,1.76v9.2a6.179,6.179,0,0,1-3.618-1.255,1.163,1.163,0,0,0-1.274,1.947,8.52,8.52,0,0,0,4.892,1.633v1.847a1.163,1.163,0,0,0,1.163,1.163Zm-2.842-18.126a2.623,2.623,0,0,1-.748-2.588,3.328,3.328,0,0,1,2.234-2.619c.065-.02.128-.036.192-.053v6.284A9.813,9.813,0,0,1,243.622,165.889Zm4.7,4.763a3.662,3.662,0,0,1,2.592,4.246,4.531,4.531,0,0,1-3.292,3.647V170.4C247.853,170.483,248.085,170.567,248.327,170.653Z" transform="translate(-203.876 -131.234)"/></g></g></svg>