<svg xmlns="http://www.w3.org/2000/svg" width="85.274" height="80" viewBox="0 0 85.274 80"><defs><style>.a{fill:#ff7d27;}</style></defs><path class="a" d="M27.93,13.7c.018-.587.071-2.375,1.43-2.89C30.7,10.3,32,11.6,32.252,11.866A1.121,1.121,0,0,1,30.618,13.4a2.69,2.69,0,0,0-.38-.323,4.306,4.306,0,0,0-.067.684,3.556,3.556,0,0,0,2.049,3.531,1.122,1.122,0,0,1,.724.956c.62,7.377,6.422,9.763,9.136,9.763s8.517-2.387,9.135-9.763a1.119,1.119,0,0,1,.724-.956,3.518,3.518,0,0,0,2.05-3.531,4.178,4.178,0,0,0-.067-.685,2.645,2.645,0,0,0-.381.324,1.121,1.121,0,0,1-1.634-1.535c.25-.266,1.559-1.564,2.893-1.059,1.361.513,1.414,2.3,1.43,2.89a5.773,5.773,0,0,1-2.847,5.368c-.948,7.712-7.107,11.191-11.3,11.191S31.723,26.777,30.774,19.065A5.776,5.776,0,0,1,27.93,13.7ZM42.081,34.546s2.383-.527,2.383-2.652H39.7C39.7,34.019,42.081,34.546,42.081,34.546Zm-.064,20.926,4.657-3.783c-.489-2.43-2.713-16.906-2.874-17.142a4.153,4.153,0,0,1-1.718.717,4.172,4.172,0,0,1-1.718-.717c-.161.237-2.385,14.713-2.874,17.142ZM49.9,13.536a.84.84,0,0,1,.841.855c-.015.778-.148,3.389-1.293,4.32a4.919,4.919,0,0,1-2.978.963,3.319,3.319,0,0,1-2.5-.944,7.568,7.568,0,0,1-1.225-3.055H41.419a7.575,7.575,0,0,1-1.225,3.055,3.319,3.319,0,0,1-2.5.944,4.914,4.914,0,0,1-2.977-.963c-1.146-.93-1.28-3.541-1.294-4.32a.84.84,0,0,1,.841-.855h6.552a.84.84,0,0,1,.638.294.8.8,0,0,1,.089.165h1.087a.8.8,0,0,1,.089-.165.843.843,0,0,1,.638-.294H49.9ZM39.8,15.218H35.152a4.386,4.386,0,0,0,.619,2.189c.778.631,2.661.758,3.179.189A6.912,6.912,0,0,0,39.8,15.218Zm9.213,0H44.366a6.927,6.927,0,0,0,.845,2.379c.518.568,2.4.442,3.18-.189A4.476,4.476,0,0,0,49.009,15.218ZM51.076,9.6a1.12,1.12,0,0,0,1.035,1.2q.042,0,.084,0a1.12,1.12,0,0,0,1.117-1.038,5.729,5.729,0,0,0-2.225-5.262,1.113,1.113,0,0,0-1.535.321,1.127,1.127,0,0,0,.3,1.55A3.548,3.548,0,0,1,51.076,9.6ZM32.721,11.275a1.121,1.121,0,0,0,1.121-1.121c0-5.292,4.263-5.548,4.728-5.559h9.595a1.121,1.121,0,1,0,0-2.242H38.556c-2.406.033-6.955,1.7-6.955,7.8A1.12,1.12,0,0,0,32.721,11.275ZM11.552,53.014c.949,7.712,7.108,11.191,11.305,11.191s10.356-3.478,11.3-11.191a5.77,5.77,0,0,0,2.847-5.368c-.018-.587-.071-2.375-1.43-2.89-1.334-.5-2.644.794-2.893,1.059a1.121,1.121,0,0,0,1.634,1.535,2.646,2.646,0,0,1,.381-.324,4.308,4.308,0,0,1,.067.685,3.519,3.519,0,0,1-2.05,3.531,1.122,1.122,0,0,0-.724.956c-.619,7.377-6.422,9.763-9.135,9.763s-8.517-2.387-9.136-9.763A1.119,1.119,0,0,0,13,51.242a3.554,3.554,0,0,1-2.049-3.531,4.148,4.148,0,0,1,.067-.684,2.662,2.662,0,0,1,.377.319,1.121,1.121,0,0,0,1.638-1.53c-.248-.266-1.55-1.567-2.892-1.059-1.361.513-1.414,2.3-1.43,2.89A5.766,5.766,0,0,0,11.552,53.014Zm8.888,12.83c0,2.125,2.343,2.652,2.343,2.652s2.343-.527,2.343-2.652H20.44Zm-1.156-.476a1.118,1.118,0,0,0-1.491-.538l-2.437,1.145-.221-4.039a1.12,1.12,0,1,0-2.238.122l.047.868C10.068,64.016,0,68.727,0,81.232a1.121,1.121,0,0,0,2.242,0A16.839,16.839,0,0,1,13.074,65.267l.137,2.487a1.121,1.121,0,0,0,1.119,1.06,1.11,1.11,0,0,0,.476-.106l3.941-1.85A1.121,1.121,0,0,0,19.285,65.368Zm5.938-32.353a1.117,1.117,0,0,0,.823-.36,16.983,16.983,0,0,1,7.006-4.593,1.121,1.121,0,0,0-.716-2.125A19.248,19.248,0,0,0,24.4,31.131a1.122,1.122,0,0,0,.824,1.883ZM9.823,77.848A1.121,1.121,0,0,0,8.7,78.969v2.263a1.121,1.121,0,0,0,2.242,0V78.969A1.121,1.121,0,0,0,9.823,77.848Zm26.067,0a1.121,1.121,0,0,0-1.121,1.121v2.263a1.121,1.121,0,0,0,2.242,0V78.969A1.121,1.121,0,0,0,35.89,77.848ZM32.64,62.925l.047-.868a1.12,1.12,0,1,0-2.238-.122l-.221,4.039L27.792,64.83a1.121,1.121,0,1,0-.953,2.029l3.941,1.85a1.126,1.126,0,0,0,.476.107,1.121,1.121,0,0,0,1.119-1.06l.137-2.487A16.837,16.837,0,0,1,43.344,81.232a1.121,1.121,0,0,0,2.242,0C45.585,68.727,35.518,64.016,32.64,62.925Zm-19.885-18.9a1.081,1.081,0,0,0,.168.012,1.122,1.122,0,0,0,1.108-.954,6.063,6.063,0,0,1,1.295-2.972A1.121,1.121,0,0,0,13.6,38.682a8.311,8.311,0,0,0-1.786,4.068A1.122,1.122,0,0,0,12.755,44.025ZM16.975,39.1h9.171c.461.011,4.505.257,4.505,5.28a1.121,1.121,0,1,0,2.242,0c0-5.879-4.39-7.491-6.726-7.522H16.976a1.121,1.121,0,0,0,0,2.242Zm.89-3.1h9.061c.233,0,5.713.024,6.362,5.577a1.121,1.121,0,0,0,1.112.991,1.041,1.041,0,0,0,.131-.008,1.121,1.121,0,0,0,.983-1.243,8.391,8.391,0,0,0-8.6-7.558H17.865a1.12,1.12,0,1,0,0,2.241ZM48.421,68.083A1.121,1.121,0,0,0,47.3,69.2V81.185a1.121,1.121,0,1,0,2.242,0V69.2A1.121,1.121,0,0,0,48.421,68.083Zm28.12,0A1.121,1.121,0,0,0,75.421,69.2V81.185a1.121,1.121,0,1,0,2.242,0V69.2A1.121,1.121,0,0,0,76.542,68.083Zm-14-46.4h0A12.63,12.63,0,0,1,74.7,32.11a1.8,1.8,0,0,1,.571.106c1.361.513,1.414,2.3,1.43,2.89a5.774,5.774,0,0,1-2.846,5.368c-.949,7.712-7.108,11.191-11.305,11.191S52.19,48.187,51.241,40.475a5.772,5.772,0,0,1-2.846-5.368c.018-.587.071-2.375,1.43-2.89a1.766,1.766,0,0,1,.571-.106A12.632,12.632,0,0,1,62.544,21.687ZM52.514,33.076c.09.084.165.157.205.2a1.121,1.121,0,0,1-1.638,1.532,2.678,2.678,0,0,0-.378-.321,4.309,4.309,0,0,0-.067.685A3.556,3.556,0,0,0,52.686,38.7a1.122,1.122,0,0,1,.724.956c.62,7.377,6.422,9.763,9.136,9.763s8.517-2.387,9.136-9.763a1.119,1.119,0,0,1,.724-.956,3.517,3.517,0,0,0,2.049-3.531,4.149,4.149,0,0,0-.067-.684,2.767,2.767,0,0,0-.38.323,1.121,1.121,0,0,1-1.634-1.535c.039-.043.114-.117.205-.2A10.386,10.386,0,0,0,62.548,23.93h0A10.383,10.383,0,0,0,52.514,33.076Zm2.661,6.807a6.073,6.073,0,0,1-1.195-4.218.839.839,0,0,1,.836-.758H70.278a.839.839,0,0,1,.836.759,6.071,6.071,0,0,1-1.2,4.218,4.332,4.332,0,0,1-6.066-.02,4.014,4.014,0,0,1-.638-1.013H61.878a3.994,3.994,0,0,1-.638,1.013,4.329,4.329,0,0,1-6.065.019Zm7.564-2.715c-.026-.207-.041-.4-.049-.581H62.4c-.008.177-.024.372-.05.581Zm1.632-.58a3.6,3.6,0,0,0,.738,2.16,2.674,2.674,0,0,0,3.558.01,3.669,3.669,0,0,0,.77-2.17H64.372Zm-8.717,0a3.655,3.655,0,0,0,.769,2.17,2.672,2.672,0,0,0,3.561-.015,3.613,3.613,0,0,0,.733-2.155H55.655Zm29.619,32.1V81.22a1.121,1.121,0,1,1-2.242,0V68.691a16.629,16.629,0,0,0-6.024-13.335c-5.069,5.281-9.932,7.965-14.462,7.965-4.565,0-9.469-2.725-14.581-8.088a16.285,16.285,0,0,0-5.8,10.441,1.121,1.121,0,0,1-2.222-.3,18.637,18.637,0,0,1,12.68-15.242,1.12,1.12,0,0,1,1.211.337c.045.053,4.527,5.26,8.714,5.26s8.532-5.2,8.576-5.249a1.119,1.119,0,0,1,1.187-.359C72.438,50.162,85.274,54.191,85.274,68.691Zm-10.1-14.681a17.85,17.85,0,0,0-2.857-1.5c-1.424,1.539-5.472,5.462-9.773,5.462s-8.455-3.945-9.9-5.468a16.888,16.888,0,0,0-2.834,1.406c4.584,4.743,8.866,7.169,12.73,7.169C66.381,61.08,70.631,58.685,75.176,54.011Zm-55.4,21.555,6.551,3.122c-.2-1.134-.425-2.455-.656-3.777l-5.3-2.724C20.186,73.238,19.981,74.407,19.778,75.565Zm1.317-7.07a13.212,13.212,0,0,0-.3,1.388l4.388,2.255c-.359-2-.65-3.551-.712-3.642a4.041,4.041,0,0,1-1.689.717A4.052,4.052,0,0,1,21.095,68.5ZM18.8,81.232h7.664l-7.08-3.373C19.128,79.315,18.913,80.565,18.8,81.232Zm4.188-33.174v5.29H21.607a1.121,1.121,0,0,0,0,2.242h2.5a1.121,1.121,0,0,0,1.121-1.121V48.058a1.121,1.121,0,0,0-2.242,0Z" transform="translate(0 -2.353)"/></svg>