<svg xmlns="http://www.w3.org/2000/svg" width="57.84" height="70.509" viewBox="0 0 57.84 70.509"><defs><style>.a{fill:#ff7d27;}</style></defs><g transform="translate(-46)"><g transform="translate(79.051 62.246)"><path class="a" d="M287.377,452a1.377,1.377,0,1,0,1.377,1.377A1.378,1.378,0,0,0,287.377,452Z" transform="translate(-286 -452)"/></g><g transform="translate(46)"><path class="a" d="M99.708,6.335H95.577v-2.2A4.136,4.136,0,0,0,91.445,0H58.394a4.136,4.136,0,0,0-4.131,4.131v2.2H50.131A4.136,4.136,0,0,0,46,10.466c0,8.959,4.192,15.543,10.993,17.376A30.359,30.359,0,0,0,67.69,40.49a3.982,3.982,0,0,1,1.721,3.325V51.4a5.515,5.515,0,0,0-4.131,5.335H63.9a4.136,4.136,0,0,0-4.131,4.131v8.263a1.377,1.377,0,0,0,1.377,1.377H88.691a1.377,1.377,0,0,0,1.377-1.377V60.869a4.136,4.136,0,0,0-4.131-4.131H84.56A5.518,5.518,0,0,0,80.428,51.4V43.822a3.987,3.987,0,0,1,1.723-3.332,30.358,30.358,0,0,0,10.7-12.647c6.8-1.834,10.992-8.417,10.992-17.376A4.136,4.136,0,0,0,99.708,6.335ZM48.754,10.466a1.379,1.379,0,0,1,1.377-1.377h4.131v6.156a30.248,30.248,0,0,0,1.414,9.174C51.295,22.248,48.754,17.234,48.754,10.466ZM85.937,59.492a1.379,1.379,0,0,1,1.377,1.377v6.886H62.526V60.869A1.379,1.379,0,0,1,63.9,59.492Zm6.886-44.247a27.691,27.691,0,0,1-12.21,22.96,6.736,6.736,0,0,0-2.938,5.617v8.785a1.377,1.377,0,0,0,1.377,1.377,2.757,2.757,0,0,1,2.754,2.754H68.034a2.756,2.756,0,0,1,2.646-2.752q.054,0,.108,0a1.382,1.382,0,0,0,1.377-1.383V43.815a6.732,6.732,0,0,0-2.936-5.609A27.7,27.7,0,0,1,57.017,15.245V4.131a1.379,1.379,0,0,1,1.377-1.377H91.445a1.379,1.379,0,0,1,1.377,1.377Zm1.34,9.173a30.267,30.267,0,0,0,1.414-9.173V9.089h4.131a1.379,1.379,0,0,1,1.377,1.377C101.085,17.234,98.545,22.247,94.163,24.418Z" transform="translate(-46)"/></g><g transform="translate(63.854 8.318)"><path class="a" d="M197.613,68.354a1.376,1.376,0,0,0-1.112-.937l-5.943-.863L187.9,61.168a1.377,1.377,0,0,0-2.47,0l-2.658,5.387-5.943.863a1.377,1.377,0,0,0-.763,2.349l4.3,4.192-1.015,5.92a1.377,1.377,0,0,0,2,1.452l5.315-2.795,5.317,2.795a1.377,1.377,0,0,0,2-1.452l-1.016-5.92,4.3-4.192A1.377,1.377,0,0,0,197.613,68.354Zm-7.091,4.137a1.377,1.377,0,0,0-.4,1.219l.667,3.883-3.487-1.833a1.377,1.377,0,0,0-1.282,0l-3.486,1.833.666-3.883a1.377,1.377,0,0,0-.4-1.219l-2.821-2.749,3.9-.566a1.377,1.377,0,0,0,1.037-.753l1.744-3.534,1.744,3.534a1.377,1.377,0,0,0,1.037.753l3.9.566Z" transform="translate(-175.649 -60.4)"/></g><g transform="translate(68.034 62.246)"><path class="a" d="M212.886,452h-5.509a1.377,1.377,0,0,0,0,2.754h5.509a1.377,1.377,0,0,0,0-2.754Z" transform="translate(-206 -452)"/></g><g transform="translate(96.129 66.317)"><path class="a" d="M410.01,481.618h.768C410.387,481.54,410.124,481.532,410.01,481.618Z" transform="translate(-410.01 -481.556)"/></g></g></svg>