<svg xmlns="http://www.w3.org/2000/svg" width="74.699" height="78.687" viewBox="0 0 74.699 78.687"><defs><style>.a{fill:#ff7d27;}</style></defs><g transform="translate(-12.976)"><path class="a" d="M189.313,236.179a10.02,10.02,0,0,0,19.476,0,1.152,1.152,0,1,0-2.24-.543,7.715,7.715,0,0,1-15,0,1.152,1.152,0,1,0-2.24.543Z" transform="translate(-149.214 -198.682)"/><path class="a" d="M217.877,188.425a1.152,1.152,0,0,0,1.152-1.152v-1.227a1.152,1.152,0,1,0-2.3,0v1.227A1.152,1.152,0,0,0,217.877,188.425Z" transform="translate(-172.441 -156.482)"/><path class="a" d="M277.317,187.272v-1.227a1.152,1.152,0,1,0-2.3,0v1.227a1.152,1.152,0,0,0,2.3,0Z" transform="translate(-221.772 -156.482)"/><path class="a" d="M138.221,347.287l-1.459,1.216a5.252,5.252,0,0,0-1.894,4.045v18.668a1.152,1.152,0,1,0,2.3,0V352.548a2.952,2.952,0,0,1,1.065-2.274l1.459-1.216a1.152,1.152,0,1,0-1.475-1.771Z" transform="translate(-103.162 -293.697)"/><path class="a" d="M181.4,376.824a1.152,1.152,0,0,0-1.152,1.152v18.48a1.152,1.152,0,0,0,2.3,0v-18.48A1.152,1.152,0,0,0,181.4,376.824Z" transform="translate(-141.565 -318.921)"/><path class="a" d="M188.671,167.734l-7.247-6.039v-2.219A14.63,14.63,0,0,0,165.6,135.041a1.152,1.152,0,1,0,1.053,2.05,12.192,12.192,0,0,1,5.626-1.356,12.329,12.329,0,1,1-9.231,4.159,1.152,1.152,0,0,0-1.726-1.528,14.621,14.621,0,0,0,1.966,21.231v2.1l-1.873,1.56a1.153,1.153,0,0,0,1.476,1.771l2.287-1.906a1.152,1.152,0,0,0,.415-.885v-1.16a14.61,14.61,0,0,0,13.525-.081v1.241a1.153,1.153,0,0,0,.415.885l7.661,6.385a2.952,2.952,0,0,1,1.065,2.274v18.668a1.152,1.152,0,1,0,2.3,0V171.779a5.252,5.252,0,0,0-1.894-4.045Z" transform="translate(-122.442 -112.928)"/><path class="a" d="M312.645,376.824a1.152,1.152,0,0,0-1.152,1.152v18.48a1.152,1.152,0,0,0,2.3,0v-18.48A1.152,1.152,0,0,0,312.645,376.824Z" transform="translate(-252.647 -318.921)"/><path class="a" d="M394.6,283.211l-7.948-10.356a1.5,1.5,0,0,0-1.2-.591h0a1.5,1.5,0,0,0-1.2.59l-7.948,10.356a1.509,1.509,0,0,0,1.2,2.428h2.46v12.433a1.152,1.152,0,0,0,2.3,0V284.486a1.152,1.152,0,0,0-1.152-1.152h-2l6.334-8.253,6.334,8.253h-2a1.152,1.152,0,0,0-1.152,1.152v23.461a1.152,1.152,0,0,0,2.3,0V285.638h2.46a1.509,1.509,0,0,0,1.2-2.428Z" transform="translate(-307.242 -230.428)"/><path class="a" d="M402.993,464.678a1.152,1.152,0,0,0-1.152,1.152v4.98a1.152,1.152,0,1,0,2.3,0v-4.98A1.152,1.152,0,0,0,402.993,464.678Z" transform="translate(-329.113 -393.276)"/><path class="a" d="M31.579,210.1l-7.948-10.356a1.509,1.509,0,0,0-2.394,0L13.289,210.1a1.509,1.509,0,0,0,1.2,2.428h2.46v27.638a1.152,1.152,0,1,0,2.3,0V211.378a1.152,1.152,0,0,0-1.152-1.152h-2l6.334-8.253,6.334,8.253h-2a1.152,1.152,0,0,0-1.152,1.152v23.461a1.152,1.152,0,1,0,2.3,0V212.53h2.46a1.509,1.509,0,0,0,1.2-2.428Z" transform="translate(0 -168.554)"/><path class="a" d="M297.325,13.374h2.46v8a1.152,1.152,0,1,0,2.3,0V12.222a1.152,1.152,0,0,0-1.152-1.152h-2l6.334-8.253,6.334,8.253h-2a1.152,1.152,0,0,0-1.152,1.152V35.683a1.152,1.152,0,0,0,2.3,0V13.374h2.46a1.509,1.509,0,0,0,1.2-2.428L306.47.59a1.5,1.5,0,0,0-1.2-.59h0a1.5,1.5,0,0,0-1.2.59l-7.948,10.356a1.509,1.509,0,0,0,1.2,2.428Z" transform="translate(-239.378)"/></g></svg>